%TF.GenerationSoftware,KiCad,Pcbnew,8.0.2-1*%
%TF.CreationDate,2024-05-14T21:34:08+09:00*%
%TF.ProjectId,us,75732e6b-6963-4616-945f-706362585858,rev?*%
%TF.SameCoordinates,Original*%
%TF.FileFunction,Paste,Bot*%
%TF.FilePolarity,Positive*%
%FSLAX46Y46*%
G04 Gerber Fmt 4.6, Leading zero omitted, Abs format (unit mm)*
G04 Created by KiCad (PCBNEW 8.0.2-1) date 2024-05-14 21:34:08*
%MOMM*%
%LPD*%
G01*
G04 APERTURE LIST*
%ADD10C,0.500000*%
%ADD11C,0.700000*%
%ADD12C,0.300000*%
%ADD13C,0.650010*%
%ADD14C,0.350010*%
%ADD15C,0.600000*%
%ADD16C,0.550010*%
%ADD17C,1.170030*%
%ADD18C,0.629970*%
%ADD19C,0.624990*%
%ADD20C,0.000000*%
%ADD21C,0.800000*%
G04 APERTURE END LIST*
D10*
X139650000Y44030000D02*
X141190000Y44020000D01*
X139690000Y44860000D02*
X141150000Y44860000D01*
D11*
X139710000Y44390000D02*
X141100000Y44390000D01*
D10*
X139805035Y41999970D02*
X141054965Y41999970D01*
X139805035Y42700000D02*
X141054965Y42700000D01*
D11*
X139904855Y42349980D02*
X140954885Y42349980D01*
D10*
X139815035Y40029970D02*
X141064965Y40029970D01*
X139815035Y40730000D02*
X141064965Y40730000D01*
D11*
X139914855Y40379980D02*
X140964885Y40379980D01*
D10*
X139785035Y38029970D02*
X141034965Y38029970D01*
X139785035Y38730000D02*
X141034965Y38730000D01*
D11*
X139884855Y38379980D02*
X140934885Y38379980D01*
D10*
X139815035Y36049970D02*
X141064965Y36049970D01*
X139815035Y36750000D02*
X141064965Y36750000D01*
D11*
X139914855Y36399980D02*
X140964885Y36399980D01*
D10*
X139815035Y34049970D02*
X141064965Y34049970D01*
X139815035Y34750000D02*
X141064965Y34750000D01*
D11*
X139914855Y34399980D02*
X140964885Y34399980D01*
D10*
X164815035Y23019970D02*
X166064965Y23019970D01*
X164815035Y23720000D02*
X166064965Y23720000D01*
D11*
X164914855Y23369980D02*
X165964885Y23369980D01*
D10*
X164805035Y21049970D02*
X166054965Y21049970D01*
X164805035Y21750000D02*
X166054965Y21750000D01*
D11*
X164904855Y21399980D02*
X165954885Y21399980D01*
D10*
X164805035Y19059970D02*
X166054965Y19059970D01*
X164805035Y19760000D02*
X166054965Y19760000D01*
D11*
X164904855Y19409980D02*
X165954885Y19409980D01*
D10*
X164795035Y16999970D02*
X166044965Y16999970D01*
X164795035Y17700000D02*
X166044965Y17700000D01*
D11*
X164894855Y17349980D02*
X165944885Y17349980D01*
D10*
X139795035Y19039970D02*
X141044965Y19039970D01*
X139795035Y19740000D02*
X141044965Y19740000D01*
D11*
X139894855Y19389980D02*
X140944885Y19389980D01*
D10*
X139795035Y21049970D02*
X141044965Y21049970D01*
X139795035Y21750000D02*
X141044965Y21750000D01*
D11*
X139894855Y21399980D02*
X140944885Y21399980D01*
D10*
X139780150Y23049990D02*
X141030080Y23049990D01*
X139780150Y23750020D02*
X141030080Y23750020D01*
D11*
X139879970Y23400000D02*
X140930000Y23400000D01*
D12*
X16400020Y41330120D02*
X19450050Y41330120D01*
X16400020Y41479980D02*
X19450050Y41479980D01*
X16400020Y41180000D02*
X19450050Y41180000D01*
X16349980Y40530020D02*
X19450050Y40530020D01*
X16349980Y40679880D02*
X19450050Y40679880D01*
X16349980Y40379900D02*
X19450050Y40379900D01*
X16349980Y39880030D02*
X19450050Y39880030D01*
X16349980Y39379910D02*
X19450050Y39379910D01*
X16349980Y38880030D02*
X19450050Y38880030D01*
X16400020Y34930080D02*
X19450050Y34930080D01*
X16400020Y35079940D02*
X19450050Y35079940D01*
X16400020Y34779970D02*
X19450050Y34779970D01*
X16349980Y35729930D02*
X19450050Y35729930D01*
X16349980Y35880040D02*
X19450050Y35880040D01*
X16349980Y35580070D02*
X19450050Y35580070D01*
X16349980Y36379910D02*
X19450050Y36379910D01*
X16349980Y36880040D02*
X19450050Y36880040D01*
X16349980Y37379910D02*
X19450050Y37379910D01*
X16349980Y37880040D02*
X19450050Y37880040D01*
X16349980Y38379910D02*
X19450050Y38379910D01*
D13*
X67200020Y16925040D02*
X67200020Y17675100D01*
D10*
X66874900Y16850110D02*
X66874900Y17750030D01*
X67524880Y16850110D02*
X67524880Y17750030D01*
D13*
X65149980Y16925040D02*
X65149980Y17675100D01*
D10*
X64825120Y16850110D02*
X64825120Y17750030D01*
X65475100Y16850110D02*
X65475100Y17750030D01*
D12*
X214336120Y23100030D02*
X214336120Y24999950D01*
X214186260Y23100030D02*
X214186260Y24999950D01*
X214486240Y23100030D02*
X214486240Y24999950D01*
X214336120Y13400020D02*
X214336120Y15299940D01*
X214186260Y13400020D02*
X214186260Y15299940D01*
X214486240Y13400020D02*
X214486240Y15299940D01*
X213066120Y23100030D02*
X213066120Y24999950D01*
X212916260Y23100030D02*
X212916260Y24999950D01*
X213216240Y23100030D02*
X213216240Y24999950D01*
X213066120Y13400020D02*
X213066120Y15299940D01*
X212916260Y13400020D02*
X212916260Y15299940D01*
X213216240Y13400020D02*
X213216240Y15299940D01*
X211796120Y23100030D02*
X211796120Y24999950D01*
X211646260Y23100030D02*
X211646260Y24999950D01*
X211946240Y23100030D02*
X211946240Y24999950D01*
X211796120Y13400020D02*
X211796120Y15299940D01*
X211646260Y13400020D02*
X211646260Y15299940D01*
X211946240Y13400020D02*
X211946240Y15299940D01*
X210526120Y23100030D02*
X210526120Y24999950D01*
X210376260Y23100030D02*
X210376260Y24999950D01*
X210676240Y23100030D02*
X210676240Y24999950D01*
X210526120Y13400020D02*
X210526120Y15299940D01*
X210376260Y13400020D02*
X210376260Y15299940D01*
X210676240Y13400020D02*
X210676240Y15299940D01*
X209256120Y23100030D02*
X209256120Y24999950D01*
X209106260Y23100030D02*
X209106260Y24999950D01*
X209406240Y23100030D02*
X209406240Y24999950D01*
X209256120Y13400020D02*
X209256120Y15299940D01*
X209106260Y13400020D02*
X209106260Y15299940D01*
X209406240Y13400020D02*
X209406240Y15299940D01*
X207986120Y23100030D02*
X207986120Y24999950D01*
X207836260Y23100030D02*
X207836260Y24999950D01*
X208136240Y23100030D02*
X208136240Y24999950D01*
X207986120Y13400020D02*
X207986120Y15299940D01*
X207836260Y13400020D02*
X207836260Y15299940D01*
X208136240Y13400020D02*
X208136240Y15299940D01*
X206716120Y23100030D02*
X206716120Y24999950D01*
X206566260Y23100030D02*
X206566260Y24999950D01*
X206866240Y23100030D02*
X206866240Y24999950D01*
X206716120Y13400020D02*
X206716120Y15299940D01*
X206566260Y13400020D02*
X206566260Y15299940D01*
X206866240Y13400020D02*
X206866240Y15299940D01*
X205446120Y23100030D02*
X205446120Y24999950D01*
X205296260Y23100030D02*
X205296260Y24999950D01*
X205596240Y23100030D02*
X205596240Y24999950D01*
X205446120Y13400020D02*
X205446120Y15299940D01*
X205296260Y13400020D02*
X205296260Y15299940D01*
X205596240Y13400020D02*
X205596240Y15299940D01*
X204176120Y23100030D02*
X204176120Y24999950D01*
X204026260Y23100030D02*
X204026260Y24999950D01*
X204326240Y23100030D02*
X204326240Y24999950D01*
X204176120Y13400020D02*
X204176120Y15299940D01*
X204026260Y13400020D02*
X204026260Y15299940D01*
X204326240Y13400020D02*
X204326240Y15299940D01*
X202906120Y23100030D02*
X202906120Y24999950D01*
X202756260Y23100030D02*
X202756260Y24999950D01*
X203056240Y23100030D02*
X203056240Y24999950D01*
X202906120Y13400020D02*
X202906120Y15299940D01*
X202756260Y13400020D02*
X202756260Y15299940D01*
X203056240Y13400020D02*
X203056240Y15299940D01*
X201636120Y23100030D02*
X201636120Y24999950D01*
X201486260Y23100030D02*
X201486260Y24999950D01*
X201786240Y23100030D02*
X201786240Y24999950D01*
X201636120Y13400020D02*
X201636120Y15299940D01*
X201486260Y13400020D02*
X201486260Y15299940D01*
X201786240Y13400020D02*
X201786240Y15299940D01*
X200366120Y23100030D02*
X200366120Y24999950D01*
X200216260Y23100030D02*
X200216260Y24999950D01*
X200516240Y23100030D02*
X200516240Y24999950D01*
X200366120Y13400020D02*
X200366120Y15299940D01*
X200216260Y13400020D02*
X200216260Y15299940D01*
X200516240Y13400020D02*
X200516240Y15299940D01*
X199096120Y23100030D02*
X199096120Y24999950D01*
X198946260Y23100030D02*
X198946260Y24999950D01*
X199246240Y23100030D02*
X199246240Y24999950D01*
X199096120Y13400020D02*
X199096120Y15299940D01*
X198946260Y13400020D02*
X198946260Y15299940D01*
X199246240Y13400020D02*
X199246240Y15299940D01*
X197826120Y23100030D02*
X197826120Y24999950D01*
X197676260Y23100030D02*
X197676260Y24999950D01*
X197976240Y23100030D02*
X197976240Y24999950D01*
X197826120Y13400020D02*
X197826120Y15299940D01*
X197676260Y13400020D02*
X197676260Y15299940D01*
X197976240Y13400020D02*
X197976240Y15299940D01*
D14*
X91149930Y25439880D02*
X92600020Y25439880D01*
X91149930Y25614880D02*
X92600020Y25614880D01*
X91149930Y25265130D02*
X92600020Y25265130D01*
X98750120Y25439880D02*
X100199950Y25439880D01*
X98750120Y25614880D02*
X100199950Y25614880D01*
X98750120Y25265130D02*
X100199950Y25265130D01*
X91149930Y24169880D02*
X92600020Y24169880D01*
X91149930Y24344880D02*
X92600020Y24344880D01*
X91149930Y23995130D02*
X92600020Y23995130D01*
X98750120Y24169880D02*
X100199950Y24169880D01*
X98750120Y24344880D02*
X100199950Y24344880D01*
X98750120Y23995130D02*
X100199950Y23995130D01*
X91149930Y22899880D02*
X92600020Y22899880D01*
X91149930Y23074880D02*
X92600020Y23074880D01*
X91149930Y22725130D02*
X92600020Y22725130D01*
X98750120Y22899880D02*
X100199950Y22899880D01*
X98750120Y23074880D02*
X100199950Y23074880D01*
X98750120Y22725130D02*
X100199950Y22725130D01*
X91149930Y21629880D02*
X92600020Y21629880D01*
X91149930Y21804880D02*
X92600020Y21804880D01*
X91149930Y21455130D02*
X92600020Y21455130D01*
X98750120Y21629880D02*
X100199950Y21629880D01*
X98750120Y21804880D02*
X100199950Y21804880D01*
X98750120Y21455130D02*
X100199950Y21455130D01*
X91149930Y20359880D02*
X92600020Y20359880D01*
X91149930Y20534880D02*
X92600020Y20534880D01*
X91149930Y20185130D02*
X92600020Y20185130D01*
X98750120Y20359880D02*
X100199950Y20359880D01*
X98750120Y20534880D02*
X100199950Y20534880D01*
X98750120Y20185130D02*
X100199950Y20185130D01*
X91149930Y19089880D02*
X92600020Y19089880D01*
X91149930Y19264880D02*
X92600020Y19264880D01*
X91149930Y18915130D02*
X92600020Y18915130D01*
X98750120Y19089880D02*
X100199950Y19089880D01*
X98750120Y19264880D02*
X100199950Y19264880D01*
X98750120Y18915130D02*
X100199950Y18915130D01*
X91149930Y17819880D02*
X92600020Y17819880D01*
X91149930Y17994880D02*
X92600020Y17994880D01*
X91149930Y17645130D02*
X92600020Y17645130D01*
X98750120Y17819880D02*
X100199950Y17819880D01*
X98750120Y17994880D02*
X100199950Y17994880D01*
X98750120Y17645130D02*
X100199950Y17645130D01*
D15*
X110674910Y29554930D02*
X110674910Y30355030D01*
X110374940Y29554930D02*
X110374940Y30355030D01*
X110974890Y29554930D02*
X110974890Y30355030D01*
X110674910Y25904950D02*
X110674910Y26705050D01*
X110374940Y25904950D02*
X110374940Y26705050D01*
X110974890Y25904950D02*
X110974890Y26705050D01*
X122925080Y87555070D02*
X122925080Y88354920D01*
X122625100Y87555070D02*
X122625100Y88354920D01*
X123225050Y87555070D02*
X123225050Y88354920D01*
X122925080Y83905090D02*
X122925080Y84704940D01*
X122625100Y83905090D02*
X122625100Y84704940D01*
X123225050Y83905090D02*
X123225050Y84704940D01*
D16*
X67900040Y28630120D02*
X68850000Y28630120D01*
X67900040Y29429960D02*
X68850000Y29429960D01*
X67900040Y30230060D02*
X68850000Y30230060D01*
X67900040Y31029910D02*
X68850000Y31029910D01*
X67900040Y31830010D02*
X68850000Y31830010D01*
X67900040Y32630110D02*
X68850000Y32630110D01*
X67900040Y33429960D02*
X68850000Y33429960D01*
X67900040Y34230060D02*
X68850000Y34230060D01*
X67900040Y35029900D02*
X68850000Y35029900D01*
X67900040Y35830000D02*
X68850000Y35830000D01*
X67900040Y36630100D02*
X68850000Y36630100D01*
X66675000Y37854890D02*
X66675000Y38805100D01*
X65874900Y37854890D02*
X65874900Y38805100D01*
X65075050Y37854890D02*
X65075050Y38805100D01*
X64274950Y37854890D02*
X64274950Y38805100D01*
X63475110Y37854890D02*
X63475110Y38805100D01*
X62675010Y37854890D02*
X62675010Y38805100D01*
X61874910Y37854890D02*
X61874910Y38805100D01*
X61075060Y37854890D02*
X61075060Y38805100D01*
X60274960Y37854890D02*
X60274960Y38805100D01*
X59475120Y37854890D02*
X59475120Y38805100D01*
X58675020Y37854890D02*
X58675020Y38805100D01*
X56500010Y36630100D02*
X57449970Y36630100D01*
X56500010Y35830000D02*
X57449970Y35830000D01*
X56500010Y35029900D02*
X57449970Y35029900D01*
X56500010Y34230060D02*
X57449970Y34230060D01*
X56500010Y33429960D02*
X57449970Y33429960D01*
X56500010Y32630110D02*
X57449970Y32630110D01*
X56500010Y31830010D02*
X57449970Y31830010D01*
X56500010Y31029910D02*
X57449970Y31029910D01*
X56500010Y30230060D02*
X57449970Y30230060D01*
X56500010Y29429960D02*
X57449970Y29429960D01*
X56500010Y28630120D02*
X57449970Y28630120D01*
X58675020Y26455120D02*
X58675020Y27405080D01*
X59475120Y26455120D02*
X59475120Y27405080D01*
X60274960Y26455120D02*
X60274960Y27405080D01*
X61075060Y26455120D02*
X61075060Y27405080D01*
X61874910Y26455120D02*
X61874910Y27405080D01*
X62675010Y26455120D02*
X62675010Y27405080D01*
X63475110Y26455120D02*
X63475110Y27405080D01*
X64274950Y26455120D02*
X64274950Y27405080D01*
X65075050Y26455120D02*
X65075050Y27405080D01*
X65874900Y26455120D02*
X65874900Y27405080D01*
X66675000Y26455120D02*
X66675000Y27405080D01*
D15*
X241949990Y92829890D02*
X241949990Y93629990D01*
X241650010Y92829890D02*
X241650010Y93629990D01*
X242249960Y92829890D02*
X242249960Y93629990D01*
X241949990Y96480120D02*
X241949990Y97279970D01*
X241650010Y96480120D02*
X241650010Y97279970D01*
X242249960Y96480120D02*
X242249960Y97279970D01*
X59894980Y117424960D02*
X59894980Y118225060D01*
X59595000Y117424960D02*
X59595000Y118225060D01*
X60194950Y117424960D02*
X60194950Y118225060D01*
X59894980Y113774980D02*
X59894980Y114575080D01*
X59595000Y113774980D02*
X59595000Y114575080D01*
X60194950Y113774980D02*
X60194950Y114575080D01*
X87834980Y136394950D02*
X87834980Y137195050D01*
X87535000Y136394950D02*
X87535000Y137195050D01*
X88134950Y136394950D02*
X88134950Y137195050D01*
X87834980Y132744970D02*
X87834980Y133545070D01*
X87535000Y132744970D02*
X87535000Y133545070D01*
X88134950Y132744970D02*
X88134950Y133545070D01*
X78944980Y117979950D02*
X78944980Y118780050D01*
X78645000Y117979950D02*
X78645000Y118780050D01*
X79244950Y117979950D02*
X79244950Y118780050D01*
X78944980Y114329970D02*
X78944980Y115130070D01*
X78645000Y114329970D02*
X78645000Y115130070D01*
X79244950Y114329970D02*
X79244950Y115130070D01*
X97994980Y114409980D02*
X97994980Y115210080D01*
X97695000Y114409980D02*
X97695000Y115210080D01*
X98294950Y114409980D02*
X98294950Y115210080D01*
X97994980Y118059960D02*
X97994980Y118860060D01*
X97695000Y118059960D02*
X97695000Y118860060D01*
X98294950Y118059960D02*
X98294950Y118860060D01*
X129744980Y107264960D02*
X129744980Y108065060D01*
X129445000Y107264960D02*
X129445000Y108065060D01*
X130044950Y107264960D02*
X130044950Y108065060D01*
X129744980Y103614980D02*
X129744980Y104415080D01*
X129445000Y103614980D02*
X129445000Y104415080D01*
X130044950Y103614980D02*
X130044950Y104415080D01*
X37669980Y98294950D02*
X37669980Y99095050D01*
X37370000Y98294950D02*
X37370000Y99095050D01*
X37969950Y98294950D02*
X37969950Y99095050D01*
X37669980Y94644970D02*
X37669980Y95445070D01*
X37370000Y94644970D02*
X37370000Y95445070D01*
X37969950Y94644970D02*
X37969950Y95445070D01*
X63704980Y98374960D02*
X63704980Y99175060D01*
X63405000Y98374960D02*
X63405000Y99175060D01*
X64004950Y98374960D02*
X64004950Y99175060D01*
X63704980Y94724980D02*
X63704980Y95525080D01*
X63405000Y94724980D02*
X63405000Y95525080D01*
X64004950Y94724980D02*
X64004950Y95525080D01*
X82627980Y98501960D02*
X82627980Y99302060D01*
X82328000Y98501960D02*
X82328000Y99302060D01*
X82927950Y98501960D02*
X82927950Y99302060D01*
X82627980Y94851980D02*
X82627980Y95652080D01*
X82328000Y94851980D02*
X82328000Y95652080D01*
X82927950Y94851980D02*
X82927950Y95652080D01*
X101931980Y98501960D02*
X101931980Y99302060D01*
X101632000Y98501960D02*
X101632000Y99302060D01*
X102231950Y98501960D02*
X102231950Y99302060D01*
X101931980Y94851980D02*
X101931980Y95652080D01*
X101632000Y94851980D02*
X101632000Y95652080D01*
X102231950Y94851980D02*
X102231950Y95652080D01*
X113723930Y102458010D02*
X114524030Y102458010D01*
X113723930Y102757990D02*
X114524030Y102757990D01*
X113723930Y102158040D02*
X114524030Y102158040D01*
X117373910Y102458010D02*
X118174010Y102458010D01*
X117373910Y102757990D02*
X118174010Y102757990D01*
X117373910Y102158040D02*
X118174010Y102158040D01*
X127279910Y100045010D02*
X128080010Y100045010D01*
X127279910Y100344990D02*
X128080010Y100344990D01*
X127279910Y99745040D02*
X128080010Y99745040D01*
X123629930Y100045010D02*
X124430030Y100045010D01*
X123629930Y100344990D02*
X124430030Y100344990D01*
X123629930Y99745040D02*
X124430030Y99745040D01*
X53425090Y79304900D02*
X53425090Y80105000D01*
X53125120Y79304900D02*
X53125120Y80105000D01*
X53725060Y79304900D02*
X53725060Y80105000D01*
X53425090Y75654920D02*
X53425090Y76455020D01*
X53125120Y75654920D02*
X53125120Y76455020D01*
X53725060Y75654920D02*
X53725060Y76455020D01*
X73991980Y80213960D02*
X73991980Y81014060D01*
X73692000Y80213960D02*
X73692000Y81014060D01*
X74291950Y80213960D02*
X74291950Y81014060D01*
X73991980Y76563980D02*
X73991980Y77364080D01*
X73692000Y76563980D02*
X73692000Y77364080D01*
X74291950Y76563980D02*
X74291950Y77364080D01*
X92914980Y79959960D02*
X92914980Y80760060D01*
X92615000Y79959960D02*
X92615000Y80760060D01*
X93214950Y79959960D02*
X93214950Y80760060D01*
X92914980Y76309980D02*
X92914980Y77110080D01*
X92615000Y76309980D02*
X92615000Y77110080D01*
X93214950Y76309980D02*
X93214950Y77110080D01*
X111583980Y77673960D02*
X111583980Y78474060D01*
X111284000Y77673960D02*
X111284000Y78474060D01*
X111883950Y77673960D02*
X111883950Y78474060D01*
X111583980Y74023980D02*
X111583980Y74824080D01*
X111284000Y74023980D02*
X111284000Y74824080D01*
X111883950Y74023980D02*
X111883950Y74824080D01*
X33675070Y58275980D02*
X33675070Y59076080D01*
X33375090Y58275980D02*
X33375090Y59076080D01*
X33975040Y58275980D02*
X33975040Y59076080D01*
X33675070Y61925960D02*
X33675070Y62726060D01*
X33375090Y61925960D02*
X33375090Y62726060D01*
X33975040Y61925960D02*
X33975040Y62726060D01*
X60275980Y61718950D02*
X60275980Y62519050D01*
X59976000Y61718950D02*
X59976000Y62519050D01*
X60575950Y61718950D02*
X60575950Y62519050D01*
X60275980Y58068970D02*
X60275980Y58869070D01*
X59976000Y58068970D02*
X59976000Y58869070D01*
X60575950Y58068970D02*
X60575950Y58869070D01*
X35764980Y117344950D02*
X35764980Y118145050D01*
X35465000Y117344950D02*
X35465000Y118145050D01*
X36064950Y117344950D02*
X36064950Y118145050D01*
X35764980Y113694970D02*
X35764980Y114495070D01*
X35465000Y113694970D02*
X35465000Y114495070D01*
X36064950Y113694970D02*
X36064950Y114495070D01*
X269949930Y56155080D02*
X269949930Y56954930D01*
X269649960Y56155080D02*
X269649960Y56954930D01*
X270249900Y56155080D02*
X270249900Y56954930D01*
X269949930Y59805060D02*
X269949930Y60604910D01*
X269649960Y59805060D02*
X269649960Y60604910D01*
X270249900Y59805060D02*
X270249900Y60604910D01*
X306874930Y62380110D02*
X307675030Y62380110D01*
X306874930Y62680090D02*
X307675030Y62680090D01*
X306874930Y62079890D02*
X307675030Y62079890D01*
X303224950Y62380110D02*
X304025050Y62380110D01*
X303224950Y62680090D02*
X304025050Y62680090D01*
X303224950Y62079890D02*
X304025050Y62079890D01*
X288450020Y56330090D02*
X288450020Y57129930D01*
X288150050Y56330090D02*
X288150050Y57129930D01*
X288749990Y56330090D02*
X288749990Y57129930D01*
X288450020Y59980070D02*
X288450020Y60779910D01*
X288150050Y59980070D02*
X288150050Y60779910D01*
X288749990Y59980070D02*
X288749990Y60779910D01*
X136884920Y81630010D02*
X137685020Y81630010D01*
X136884920Y81929990D02*
X137685020Y81929990D01*
X136884920Y81330040D02*
X137685020Y81330040D01*
X133234940Y81630010D02*
X134035040Y81630010D01*
X133234940Y81929990D02*
X134035040Y81929990D01*
X133234940Y81330040D02*
X134035040Y81330040D01*
X108499910Y40479980D02*
X109300010Y40479980D01*
X108499910Y40779950D02*
X109300010Y40779950D01*
X108499910Y40180010D02*
X109300010Y40180010D01*
X112149890Y40479980D02*
X112949990Y40479980D01*
X112149890Y40779950D02*
X112949990Y40779950D01*
X112149890Y40180010D02*
X112949990Y40180010D01*
X231374950Y62380110D02*
X232175050Y62380110D01*
X231374950Y62680090D02*
X232175050Y62680090D01*
X231374950Y62079890D02*
X232175050Y62079890D01*
X227724970Y62380110D02*
X228525070Y62380110D01*
X227724970Y62680090D02*
X228525070Y62680090D01*
X227724970Y62079890D02*
X228525070Y62079890D01*
X250374910Y62380110D02*
X251175010Y62380110D01*
X250374910Y62680090D02*
X251175010Y62680090D01*
X250374910Y62079890D02*
X251175010Y62079890D01*
X246724930Y62380110D02*
X247525030Y62380110D01*
X246724930Y62680090D02*
X247525030Y62680090D01*
X246724930Y62079890D02*
X247525030Y62079890D01*
X193950080Y73829930D02*
X193950080Y74630030D01*
X193650110Y73829930D02*
X193650110Y74630030D01*
X194250060Y73829930D02*
X194250060Y74630030D01*
X193950080Y77479910D02*
X193950080Y78280010D01*
X193650110Y77479910D02*
X193650110Y78280010D01*
X194250060Y77479910D02*
X194250060Y78280010D01*
X217950030Y111830100D02*
X217950030Y112629950D01*
X217650060Y111830100D02*
X217650060Y112629950D01*
X218250010Y111830100D02*
X218250010Y112629950D01*
X217950030Y115480080D02*
X217950030Y116279930D01*
X217650060Y115480080D02*
X217650060Y116279930D01*
X218250010Y115480080D02*
X218250010Y116279930D01*
X298950130Y111655100D02*
X298950130Y112454940D01*
X298649900Y111655100D02*
X298649900Y112454940D01*
X299250100Y111655100D02*
X299250100Y112454940D01*
X298950130Y115305080D02*
X298950130Y116104920D01*
X298649900Y115305080D02*
X298649900Y116104920D01*
X299250100Y115305080D02*
X299250100Y116104920D01*
X184950100Y92829890D02*
X184950100Y93629990D01*
X184650130Y92829890D02*
X184650130Y93629990D01*
X185250070Y92829890D02*
X185250070Y93629990D01*
X184950100Y96480120D02*
X184950100Y97279970D01*
X184650130Y96480120D02*
X184650130Y97279970D01*
X185250070Y96480120D02*
X185250070Y97279970D01*
X203950060Y92980000D02*
X203950060Y93780100D01*
X203650090Y92980000D02*
X203650090Y93780100D01*
X204250040Y92980000D02*
X204250040Y93780100D01*
X203950060Y96629980D02*
X203950060Y97430080D01*
X203650090Y96629980D02*
X203650090Y97430080D01*
X204250040Y96629980D02*
X204250040Y97430080D01*
X222950020Y92654880D02*
X222950020Y93454980D01*
X222650050Y92654880D02*
X222650050Y93454980D01*
X223250000Y92654880D02*
X223250000Y93454980D01*
X222950020Y96305120D02*
X222950020Y97104960D01*
X222650050Y96305120D02*
X222650050Y97104960D01*
X223250000Y96305120D02*
X223250000Y97104960D01*
X236950000Y111830100D02*
X236950000Y112629950D01*
X236650020Y111830100D02*
X236650020Y112629950D01*
X237249970Y111830100D02*
X237249970Y112629950D01*
X236950000Y115480080D02*
X236950000Y116279930D01*
X236650020Y115480080D02*
X236650020Y116279930D01*
X237249970Y115480080D02*
X237249970Y116279930D01*
X255949960Y111655100D02*
X255949960Y112454940D01*
X255649980Y111655100D02*
X255649980Y112454940D01*
X256249930Y111655100D02*
X256249930Y112454940D01*
X255949960Y115305080D02*
X255949960Y116104920D01*
X255649980Y115305080D02*
X255649980Y116104920D01*
X256249930Y115305080D02*
X256249930Y116104920D01*
X274949920Y111830100D02*
X274949920Y112629950D01*
X274649950Y111830100D02*
X274649950Y112629950D01*
X275249890Y111830100D02*
X275249890Y112629950D01*
X274949920Y115480080D02*
X274949920Y116279930D01*
X274649950Y115480080D02*
X274649950Y116279930D01*
X275249890Y115480080D02*
X275249890Y116279930D01*
X68784980Y136474960D02*
X68784980Y137275060D01*
X68485000Y136474960D02*
X68485000Y137275060D01*
X69084950Y136474960D02*
X69084950Y137275060D01*
X68784980Y132824980D02*
X68784980Y133625080D01*
X68485000Y132824980D02*
X68485000Y133625080D01*
X69084950Y132824980D02*
X69084950Y133625080D01*
X88924890Y61980060D02*
X88924890Y62779910D01*
X88624920Y61980060D02*
X88624920Y62779910D01*
X89225120Y61980060D02*
X89225120Y62779910D01*
X88924890Y58330080D02*
X88924890Y59129930D01*
X88624920Y58330080D02*
X88624920Y59129930D01*
X89225120Y58330080D02*
X89225120Y59129930D01*
X293949880Y111655100D02*
X293949880Y112454940D01*
X293649910Y111655100D02*
X293649910Y112454940D01*
X294250110Y111655100D02*
X294250110Y112454940D01*
X293949880Y115305080D02*
X293949880Y116104920D01*
X293649910Y115305080D02*
X293649910Y116104920D01*
X294250110Y115305080D02*
X294250110Y116104920D01*
X137599930Y126715010D02*
X138400030Y126715010D01*
X137599930Y127014990D02*
X138400030Y127014990D01*
X137599930Y126415040D02*
X138400030Y126415040D01*
X133949950Y126715010D02*
X134750050Y126715010D01*
X133949950Y127014990D02*
X134750050Y127014990D01*
X133949950Y126415040D02*
X134750050Y126415040D01*
X116663980Y61805060D02*
X116663980Y62604900D01*
X116364000Y61805060D02*
X116364000Y62604900D01*
X116963950Y61805060D02*
X116963950Y62604900D01*
X116663980Y58155080D02*
X116663980Y58954920D01*
X116364000Y58155080D02*
X116364000Y58954920D01*
X116963950Y58155080D02*
X116963950Y58954920D01*
X184049920Y60380120D02*
X184850020Y60380120D01*
X184049920Y60680090D02*
X184850020Y60680090D01*
X184049920Y60079890D02*
X184850020Y60079890D01*
X180399940Y60380120D02*
X181200040Y60380120D01*
X180399940Y60680090D02*
X181200040Y60680090D01*
X180399940Y60079890D02*
X181200040Y60079890D01*
X174950120Y71829930D02*
X174950120Y72630030D01*
X174649890Y71829930D02*
X174649890Y72630030D01*
X175250090Y71829930D02*
X175250090Y72630030D01*
X174950120Y75479910D02*
X174950120Y76280010D01*
X174649890Y75479910D02*
X174649890Y76280010D01*
X175250090Y75479910D02*
X175250090Y76280010D01*
X260949950Y92829890D02*
X260949950Y93629990D01*
X260649970Y92829890D02*
X260649970Y93629990D01*
X261249920Y92829890D02*
X261249920Y93629990D01*
X260949950Y96480120D02*
X260949950Y97279970D01*
X260649970Y96480120D02*
X260649970Y97279970D01*
X261249920Y96480120D02*
X261249920Y97279970D01*
X131503930Y62326010D02*
X132304030Y62326010D01*
X131503930Y62625990D02*
X132304030Y62625990D01*
X131503930Y62026040D02*
X132304030Y62026040D01*
X127853950Y62326010D02*
X128654050Y62326010D01*
X127853950Y62625990D02*
X128654050Y62625990D01*
X127853950Y62026040D02*
X128654050Y62026040D01*
X265949940Y130830070D02*
X265949940Y131629910D01*
X265649960Y130830070D02*
X265649960Y131629910D01*
X266249910Y130830070D02*
X266249910Y131629910D01*
X265949940Y134480050D02*
X265949940Y135279890D01*
X265649960Y134480050D02*
X265649960Y135279890D01*
X266249910Y134480050D02*
X266249910Y135279890D01*
X179950110Y109655100D02*
X179950110Y110454950D01*
X179649880Y109655100D02*
X179649880Y110454950D01*
X180250080Y109655100D02*
X180250080Y110454950D01*
X179950110Y113305080D02*
X179950110Y114104930D01*
X179649880Y113305080D02*
X179649880Y114104930D01*
X180250080Y113305080D02*
X180250080Y114104930D01*
X208900010Y60380120D02*
X209700110Y60380120D01*
X208900010Y60680090D02*
X209700110Y60680090D01*
X208900010Y60079890D02*
X209700110Y60079890D01*
X212549990Y60380120D02*
X213350090Y60380120D01*
X212549990Y60680090D02*
X213350090Y60680090D01*
X212549990Y60079890D02*
X213350090Y60079890D01*
X269949930Y73829930D02*
X269949930Y74630030D01*
X269649960Y73829930D02*
X269649960Y74630030D01*
X270249900Y73829930D02*
X270249900Y74630030D01*
X269949930Y77479910D02*
X269949930Y78280010D01*
X269649960Y77479910D02*
X269649960Y78280010D01*
X270249900Y77479910D02*
X270249900Y78280010D01*
X284450030Y131480050D02*
X284450030Y132279900D01*
X284150050Y131480050D02*
X284150050Y132279900D01*
X284750000Y131480050D02*
X284750000Y132279900D01*
X284450030Y135130030D02*
X284450030Y135929880D01*
X284150050Y135130030D02*
X284150050Y135929880D01*
X284750000Y135130030D02*
X284750000Y135929880D01*
X246949980Y130830070D02*
X246949980Y131629910D01*
X246650000Y130830070D02*
X246650000Y131629910D01*
X247249950Y130830070D02*
X247249950Y131629910D01*
X246949980Y134480050D02*
X246949980Y135279890D01*
X246650000Y134480050D02*
X246650000Y135279890D01*
X247249950Y134480050D02*
X247249950Y135279890D01*
X198950070Y112154970D02*
X198950070Y112955070D01*
X198650100Y112154970D02*
X198650100Y112955070D01*
X199250050Y112154970D02*
X199250050Y112955070D01*
X198950070Y115804950D02*
X198950070Y116605050D01*
X198650100Y115804950D02*
X198650100Y116605050D01*
X199250050Y115804950D02*
X199250050Y116605050D01*
X208950050Y130830070D02*
X208950050Y131629910D01*
X208650080Y130830070D02*
X208650080Y131629910D01*
X209250030Y130830070D02*
X209250030Y131629910D01*
X208950050Y134480050D02*
X208950050Y135279890D01*
X208650080Y134480050D02*
X208650080Y135279890D01*
X209250030Y134480050D02*
X209250030Y135279890D01*
X293949880Y127979930D02*
X293949880Y128780030D01*
X293649910Y127979930D02*
X293649910Y128780030D01*
X294250110Y127979930D02*
X294250110Y128780030D01*
X293949880Y131629910D02*
X293949880Y132430010D01*
X293649910Y131629910D02*
X293649910Y132430010D01*
X294250110Y131629910D02*
X294250110Y132430010D01*
X288949890Y73155050D02*
X288949890Y73954890D01*
X288649920Y73155050D02*
X288649920Y73954890D01*
X289250120Y73155050D02*
X289250120Y73954890D01*
X288949890Y76805030D02*
X288949890Y77604870D01*
X288649920Y76805030D02*
X288649920Y77604870D01*
X289250120Y76805030D02*
X289250120Y77604870D01*
X307449980Y73479910D02*
X307449980Y74280010D01*
X307150010Y73479910D02*
X307150010Y74280010D01*
X307749960Y73479910D02*
X307749960Y74280010D01*
X307449980Y77129890D02*
X307449980Y77929990D01*
X307150010Y77129890D02*
X307150010Y77929990D01*
X307749960Y77129890D02*
X307749960Y77929990D01*
X187449970Y45805090D02*
X187449970Y46604940D01*
X187149990Y45805090D02*
X187149990Y46604940D01*
X187749940Y45805090D02*
X187749940Y46604940D01*
X187449970Y42155110D02*
X187449970Y42954960D01*
X187149990Y42155110D02*
X187149990Y42954960D01*
X187749940Y42155110D02*
X187749940Y42954960D01*
X227950010Y130655060D02*
X227950010Y131454910D01*
X227650040Y130655060D02*
X227650040Y131454910D01*
X228249990Y130655060D02*
X228249990Y131454910D01*
X227950010Y134305040D02*
X227950010Y135104890D01*
X227650040Y134305040D02*
X227650040Y135104890D01*
X228249990Y134305040D02*
X228249990Y135104890D01*
X212950040Y73654920D02*
X212950040Y74455020D01*
X212650070Y73654920D02*
X212650070Y74455020D01*
X213250020Y73654920D02*
X213250020Y74455020D01*
X212950040Y77304900D02*
X212950040Y78105000D01*
X212650070Y77304900D02*
X212650070Y78105000D01*
X213250020Y77304900D02*
X213250020Y78105000D01*
X231950010Y73829930D02*
X231950010Y74630030D01*
X231650030Y73829930D02*
X231650030Y74630030D01*
X232249980Y73829930D02*
X232249980Y74630030D01*
X231950010Y77479910D02*
X231950010Y78280010D01*
X231650030Y77479910D02*
X231650030Y78280010D01*
X232249980Y77479910D02*
X232249980Y78280010D01*
X106884980Y135839960D02*
X106884980Y136640060D01*
X106585000Y135839960D02*
X106585000Y136640060D01*
X107184950Y135839960D02*
X107184950Y136640060D01*
X106884980Y132189980D02*
X106884980Y132990080D01*
X106585000Y132189980D02*
X106585000Y132990080D01*
X107184950Y132189980D02*
X107184950Y132990080D01*
X250949970Y73654920D02*
X250949970Y74455020D01*
X250649990Y73654920D02*
X250649990Y74455020D01*
X251249940Y73654920D02*
X251249940Y74455020D01*
X250949970Y77304900D02*
X250949970Y78105000D01*
X250649990Y77304900D02*
X250649990Y78105000D01*
X251249940Y77304900D02*
X251249940Y78105000D01*
X30811980Y136601960D02*
X30811980Y137402060D01*
X30512000Y136601960D02*
X30512000Y137402060D01*
X31111950Y136601960D02*
X31111950Y137402060D01*
X30811980Y132951980D02*
X30811980Y133752080D01*
X30512000Y132951980D02*
X30512000Y133752080D01*
X31111950Y132951980D02*
X31111950Y133752080D01*
X49607980Y136601960D02*
X49607980Y137402060D01*
X49308000Y136601960D02*
X49308000Y137402060D01*
X49907950Y136601960D02*
X49907950Y137402060D01*
X49607980Y132951980D02*
X49607980Y133752080D01*
X49308000Y132951980D02*
X49308000Y133752080D01*
X49907950Y132951980D02*
X49907950Y133752080D01*
X279949910Y92829890D02*
X279949910Y93629990D01*
X279649940Y92829890D02*
X279649940Y93629990D01*
X280249880Y92829890D02*
X280249880Y93629990D01*
X279949910Y96480120D02*
X279949910Y97279970D01*
X279649940Y96480120D02*
X279649940Y97279970D01*
X280249880Y96480120D02*
X280249880Y97279970D01*
X293550090Y100380040D02*
X294349930Y100380040D01*
X293550090Y100680010D02*
X294349930Y100680010D01*
X293550090Y100080060D02*
X294349930Y100080060D01*
X297200070Y100380040D02*
X297999910Y100380040D01*
X297200070Y100680010D02*
X297999910Y100680010D01*
X297200070Y100080060D02*
X297999910Y100080060D01*
X189669930Y130824990D02*
X189669930Y131625090D01*
X189369950Y130824990D02*
X189369950Y131625090D01*
X189969900Y130824990D02*
X189969900Y131625090D01*
X189669930Y134474970D02*
X189669930Y135275070D01*
X189369950Y134474970D02*
X189369950Y135275070D01*
X189969900Y134474970D02*
X189969900Y135275070D01*
X117044980Y117424960D02*
X117044980Y118225060D01*
X116745000Y117424960D02*
X116745000Y118225060D01*
X117344950Y117424960D02*
X117344950Y118225060D01*
X117044980Y113774980D02*
X117044980Y114575080D01*
X116745000Y113774980D02*
X116745000Y114575080D01*
X117344950Y113774980D02*
X117344950Y114575080D01*
X125934980Y136394950D02*
X125934980Y137195050D01*
X125635000Y136394950D02*
X125635000Y137195050D01*
X126234950Y136394950D02*
X126234950Y137195050D01*
X125934980Y132744970D02*
X125934980Y133545070D01*
X125635000Y132744970D02*
X125635000Y133545070D01*
X126234950Y132744970D02*
X126234950Y133545070D01*
D12*
X51874930Y31029910D02*
X54475130Y31029910D01*
X51874930Y31180020D02*
X54475130Y31180020D01*
X51874930Y30880050D02*
X54475130Y30880050D01*
X51874930Y32230060D02*
X54475130Y32230060D01*
X51874930Y32379920D02*
X54475130Y32379920D01*
X51874930Y32079950D02*
X54475130Y32079950D01*
X51874930Y33429960D02*
X54475130Y33429960D01*
X51874930Y33580070D02*
X54475130Y33580070D01*
X51874930Y33280100D02*
X54475130Y33280100D01*
D14*
X73650090Y25439880D02*
X75099930Y25439880D01*
X73650090Y25614880D02*
X75099930Y25614880D01*
X73650090Y25265130D02*
X75099930Y25265130D01*
X81250030Y25439880D02*
X82700110Y25439880D01*
X81250030Y25614880D02*
X82700110Y25614880D01*
X81250030Y25265130D02*
X82700110Y25265130D01*
X73650090Y24169880D02*
X75099930Y24169880D01*
X73650090Y24344880D02*
X75099930Y24344880D01*
X73650090Y23995130D02*
X75099930Y23995130D01*
X81250030Y24169880D02*
X82700110Y24169880D01*
X81250030Y24344880D02*
X82700110Y24344880D01*
X81250030Y23995130D02*
X82700110Y23995130D01*
X73650090Y22899880D02*
X75099930Y22899880D01*
X73650090Y23074880D02*
X75099930Y23074880D01*
X73650090Y22725130D02*
X75099930Y22725130D01*
X81250030Y22899880D02*
X82700110Y22899880D01*
X81250030Y23074880D02*
X82700110Y23074880D01*
X81250030Y22725130D02*
X82700110Y22725130D01*
X73650090Y21629880D02*
X75099930Y21629880D01*
X73650090Y21804880D02*
X75099930Y21804880D01*
X73650090Y21455130D02*
X75099930Y21455130D01*
X81250030Y21629880D02*
X82700110Y21629880D01*
X81250030Y21804880D02*
X82700110Y21804880D01*
X81250030Y21455130D02*
X82700110Y21455130D01*
X73650090Y20359880D02*
X75099930Y20359880D01*
X73650090Y20534880D02*
X75099930Y20534880D01*
X73650090Y20185130D02*
X75099930Y20185130D01*
X81250030Y20359880D02*
X82700110Y20359880D01*
X81250030Y20534880D02*
X82700110Y20534880D01*
X81250030Y20185130D02*
X82700110Y20185130D01*
X73650090Y19089880D02*
X75099930Y19089880D01*
X73650090Y19264880D02*
X75099930Y19264880D01*
X73650090Y18915130D02*
X75099930Y18915130D01*
X81250030Y19089880D02*
X82700110Y19089880D01*
X81250030Y19264880D02*
X82700110Y19264880D01*
X81250030Y18915130D02*
X82700110Y18915130D01*
X73650090Y17819880D02*
X75099930Y17819880D01*
X73650090Y17994880D02*
X75099930Y17994880D01*
X73650090Y17645130D02*
X75099930Y17645130D01*
X81250030Y17819880D02*
X82700110Y17819880D01*
X81250030Y17994880D02*
X82700110Y17994880D01*
X81250030Y17645130D02*
X82700110Y17645130D01*
D12*
X130299970Y34329880D02*
X131549900Y34329880D01*
X130299970Y34479990D02*
X131549900Y34479990D01*
X130299970Y34180020D02*
X131549900Y34180020D01*
X133299960Y34329880D02*
X134549900Y34329880D01*
X133299960Y34479990D02*
X134549900Y34479990D01*
X133299960Y34180020D02*
X134549900Y34180020D01*
X130299970Y33379920D02*
X131549900Y33379920D01*
X130299970Y33530030D02*
X131549900Y33530030D01*
X130299970Y33230060D02*
X131549900Y33230060D01*
X130299970Y32429960D02*
X131549900Y32429960D01*
X130299970Y32580070D02*
X131549900Y32580070D01*
X130299970Y32280100D02*
X131549900Y32280100D01*
X133299960Y32429960D02*
X134549900Y32429960D01*
X133299960Y32580070D02*
X134549900Y32580070D01*
X133299960Y32280100D02*
X134549900Y32280100D01*
D13*
X143299940Y88680040D02*
X144050000Y88680040D01*
D10*
X143225010Y89004900D02*
X144124930Y89004900D01*
X143225010Y88354920D02*
X144124930Y88354920D01*
D13*
X143299940Y86630000D02*
X144050000Y86630000D01*
D10*
X143225010Y86955120D02*
X144124930Y86955120D01*
X143225010Y86304880D02*
X144124930Y86304880D01*
D13*
X143299940Y90829890D02*
X144050000Y90829890D01*
D10*
X143225010Y91155010D02*
X144124930Y91155010D01*
X143225010Y90505030D02*
X144124930Y90505030D01*
D13*
X143299940Y92879930D02*
X144050000Y92879930D01*
D10*
X143225010Y93205050D02*
X144124930Y93205050D01*
X143225010Y92555060D02*
X144124930Y92555060D01*
D13*
X151925020Y88754970D02*
X151925020Y89505030D01*
D10*
X151599900Y88680040D02*
X151599900Y89579960D01*
X152249890Y88680040D02*
X152249890Y89579960D01*
D13*
X153975050Y88754970D02*
X153975050Y89505030D01*
D10*
X153649930Y88680040D02*
X153649930Y89579960D01*
X154299920Y88680040D02*
X154299920Y89579960D01*
D13*
X18150080Y30625030D02*
X18150080Y31375100D01*
D10*
X17824960Y30550100D02*
X17824960Y31450030D01*
X18474940Y30550100D02*
X18474940Y31450030D01*
D13*
X16100040Y30625030D02*
X16100040Y31375100D01*
D10*
X15774920Y30550100D02*
X15774920Y31450030D01*
X16424910Y30550100D02*
X16424910Y31450030D01*
D13*
X18174970Y27625040D02*
X18174970Y28375100D01*
D10*
X17850100Y27550110D02*
X17850100Y28450030D01*
X18500090Y27550110D02*
X18500090Y28450030D01*
D13*
X16124940Y27625040D02*
X16124940Y28375100D01*
D10*
X15800070Y27550110D02*
X15800070Y28450030D01*
X16450060Y27550110D02*
X16450060Y28450030D01*
D13*
X28375100Y34677100D02*
X28375100Y35426900D01*
D10*
X28049980Y34601910D02*
X28049980Y35502090D01*
X28699970Y34601910D02*
X28699970Y35502090D01*
D13*
X30424880Y34677100D02*
X30424880Y35426900D01*
D10*
X30100020Y34601910D02*
X30100020Y35502090D01*
X30750000Y34601910D02*
X30750000Y35502090D01*
D13*
X30450030Y37217100D02*
X30450030Y37966900D01*
D10*
X30124910Y37141910D02*
X30124910Y38042090D01*
X30774890Y37141910D02*
X30774890Y38042090D01*
D13*
X28399990Y37217100D02*
X28399990Y37966900D01*
D10*
X28074870Y37141910D02*
X28074870Y38042090D01*
X28725110Y37141910D02*
X28725110Y38042090D01*
D13*
X134549900Y23379940D02*
X135299960Y23379940D01*
D10*
X134474970Y23705060D02*
X135374890Y23705060D01*
X134474970Y23055070D02*
X135374890Y23055070D01*
D13*
X134549900Y25429970D02*
X135299960Y25429970D01*
D10*
X134474970Y25755090D02*
X135374890Y25755090D01*
X134474970Y25105110D02*
X135374890Y25105110D01*
D13*
X137050020Y23329900D02*
X137800080Y23329900D01*
D10*
X136975090Y23655020D02*
X137875010Y23655020D01*
X136975090Y23005030D02*
X137875010Y23005030D01*
D13*
X137050020Y25379930D02*
X137800080Y25379930D01*
D10*
X136975090Y25705050D02*
X137875010Y25705050D01*
X136975090Y25055070D02*
X137875010Y25055070D01*
D17*
X27774900Y43315130D02*
X27774900Y44945050D01*
D18*
X27189940Y43044870D02*
X27189940Y45215050D01*
X28360120Y43044870D02*
X28360120Y45215050D01*
D17*
X31574990Y43315130D02*
X31574990Y44945050D01*
D18*
X30990030Y43044870D02*
X30990030Y45215050D01*
X32159960Y43044870D02*
X32159960Y45215050D01*
D19*
X35124900Y43692570D02*
X35124900Y44567600D01*
X34812480Y43692570D02*
X34812480Y44567600D01*
X35437570Y43692570D02*
X35437570Y44567600D01*
X38725090Y43692570D02*
X38725090Y44567600D01*
X38412420Y43692570D02*
X38412420Y44567600D01*
X39037510Y43692570D02*
X39037510Y44567600D01*
D13*
X84550000Y19580100D02*
X85300060Y19580100D01*
D10*
X84475070Y19904960D02*
X85374990Y19904960D01*
X84475070Y19254980D02*
X85374990Y19254980D01*
D13*
X84550000Y21629880D02*
X85300060Y21629880D01*
D10*
X84475070Y21955000D02*
X85374990Y21955000D01*
X84475070Y21305010D02*
X85374990Y21305010D01*
D13*
X97374960Y14755110D02*
X97374960Y15504920D01*
D10*
X97050100Y14679930D02*
X97050100Y15580110D01*
X97700080Y14679930D02*
X97700080Y15580110D01*
D13*
X99425000Y14755110D02*
X99425000Y15504920D01*
D10*
X99099880Y14679930D02*
X99099880Y15580110D01*
X99750120Y14679930D02*
X99750120Y15580110D01*
D13*
X56874920Y40304970D02*
X56874920Y41055040D01*
D10*
X56550050Y40230040D02*
X56550050Y41129970D01*
X57200040Y40230040D02*
X57200040Y41129970D01*
D13*
X58924950Y40304970D02*
X58924950Y41055040D01*
D10*
X58600090Y40230040D02*
X58600090Y41129970D01*
X59250070Y40230040D02*
X59250070Y41129970D01*
D13*
X131625090Y29755080D02*
X131625090Y30504890D01*
D10*
X131299970Y29679900D02*
X131299970Y30580080D01*
X131949950Y29679900D02*
X131949950Y30580080D01*
D13*
X133675120Y29755080D02*
X133675120Y30504890D01*
D10*
X133350000Y29679900D02*
X133350000Y30580080D01*
X133999990Y29679900D02*
X133999990Y30580080D01*
D13*
X62300100Y20355050D02*
X63049910Y20355050D01*
D10*
X62224920Y20679920D02*
X63125100Y20679920D01*
X62224920Y20029930D02*
X63125100Y20029930D01*
D13*
X62300100Y22405090D02*
X63049910Y22405090D01*
D10*
X62224920Y22729950D02*
X63125100Y22729950D01*
X62224920Y22079970D02*
X63125100Y22079970D01*
D13*
X22174960Y44505120D02*
X22174960Y45254930D01*
D10*
X21850100Y44429930D02*
X21850100Y45330110D01*
X22500080Y44429930D02*
X22500080Y45330110D01*
D13*
X24225000Y44505120D02*
X24225000Y45254930D01*
D10*
X23899880Y44429930D02*
X23899880Y45330110D01*
X24550120Y44429930D02*
X24550120Y45330110D01*
D13*
X199584060Y28024070D02*
X199584060Y28773880D01*
D10*
X199258940Y27948890D02*
X199258940Y28849070D01*
X199908920Y27948890D02*
X199908920Y28849070D01*
D13*
X201634090Y28024070D02*
X201634090Y28773880D01*
D10*
X201308970Y27948890D02*
X201308970Y28849070D01*
X201958960Y27948890D02*
X201958960Y28849070D01*
D11*
X139899900Y25379930D02*
X140949930Y25379930D01*
D10*
X139800080Y25729950D02*
X141050010Y25729950D01*
X139800080Y25029920D02*
X141050010Y25029920D01*
D20*
G36*
X57119560Y30885340D02*
G01*
X56830410Y30885340D01*
X56830410Y31174490D01*
X57119560Y31174490D01*
X57119560Y30885340D01*
G37*
D21*
X55194960Y14850110D02*
X56494930Y14850110D01*
X60345070Y14850110D02*
X61645040Y14850110D01*
X55194960Y16999970D02*
X56494930Y16999970D01*
X60345070Y16999970D02*
X61645040Y16999970D01*
M02*
